<?xml version="1.0" standalone="no"?>
<!DOCTYPE svg PUBLIC "-//W3C//DTD SVG 20010904//EN"
 "http://www.w3.org/TR/2001/REC-SVG-20010904/DTD/svg10.dtd">
<svg version="1.0" xmlns="http://www.w3.org/2000/svg"
 width="300.000000pt" height="300.000000pt" viewBox="0 0 300.000000 300.000000"
 preserveAspectRatio="xMidYMid meet">
<metadata>
Created by potrace 1.14, written by Peter Selinger 2001-2017
</metadata>
<g transform="translate(0.000000,300.000000) scale(0.100000,-0.100000)"
fill="#000000" stroke="none">
<path d="M1074 2943 c-20 -32 -45 -70 -55 -85 -10 -15 -19 -29 -19 -32 0 -4
-219 -371 -311 -521 -11 -16 -22 -37 -26 -45 -4 -8 -11 -19 -15 -25 -7 -8
-284 -470 -348 -580 -72 -123 -162 -271 -170 -279 -6 -6 -10 -22 -10 -36 0
-21 13 -33 73 -68 112 -66 378 -271 400 -309 6 -9 -22 -45 -96 -121 -106 -108
-164 -168 -380 -391 -64 -66 -117 -127 -117 -134 0 -16 301 -317 317 -317 7 0
66 51 130 114 65 63 168 162 228 220 61 58 144 139 185 179 41 40 81 77 88 81
14 8 17 5 87 -79 28 -33 52 -62 55 -65 18 -17 141 -189 175 -246 57 -93 63
-96 130 -59 57 31 325 191 385 230 19 12 198 120 397 239 199 119 375 224 391
233 17 10 70 42 118 71 49 29 96 57 104 62 8 5 58 36 110 68 52 32 96 65 98
73 1 8 -3 22 -10 32 -10 13 -36 18 -123 23 -116 6 -126 7 -300 19 -60 4 -137
8 -170 10 -55 3 -103 6 -310 21 -312 21 -354 22 -365 5 -4 -8 -7 -19 -6 -25 2
-16 128 -229 140 -237 10 -8 -14 -23 -218 -146 -77 -46 -143 -80 -146 -76 -4
5 -29 35 -56 68 -27 33 -64 76 -81 95 -18 19 -33 38 -33 41 0 5 283 281 588
574 62 60 156 151 210 203 53 52 113 110 133 129 l36 35 97 -96 c53 -53 103
-96 110 -96 20 0 31 17 61 95 15 39 33 84 41 102 8 17 14 35 14 40 0 6 7 24
16 42 9 17 17 37 18 44 2 7 6 19 9 27 4 8 23 58 43 110 20 52 45 118 56 145
10 28 31 82 45 120 14 39 29 74 34 80 5 5 9 18 9 30 0 12 4 25 8 30 5 6 21 42
35 80 14 39 46 124 71 189 25 65 46 125 46 133 0 7 -10 18 -22 24 -19 8 -107
-22 -533 -187 -280 -108 -532 -204 -560 -214 -27 -10 -63 -24 -80 -30 -16 -7
-36 -14 -43 -16 -7 -1 -24 -10 -38 -19 -36 -23 -26 -43 77 -148 l90 -91 -38
-39 c-21 -22 -67 -70 -103 -107 -299 -310 -484 -501 -628 -649 l-169 -174 -94
79 c-51 43 -99 84 -106 91 -10 9 10 49 94 187 58 97 109 176 113 176 4 0 61
-32 126 -70 65 -39 121 -70 125 -70 21 0 36 31 33 72 -5 90 -17 284 -19 318
-1 19 -6 89 -10 155 -8 135 -11 181 -20 310 -9 130 -13 187 -20 305 -4 58 -11
111 -17 117 -22 27 -48 13 -84 -44z"/>
</g>
</svg>
